<svg width="20" height="20" viewBox="0 0 20 20" fill="none" xmlns="http://www.w3.org/2000/svg">
<path fill-rule="evenodd" clip-rule="evenodd" d="M4.64286 7.92857C4.64286 3.82588 7.96874 0.5 12.0714 0.5C16.1741 0.5 19.5 3.82588 19.5 7.92857C19.5 12.0313 16.1741 15.3571 12.0714 15.3571C10.3811 15.3571 8.82147 14.7917 7.57333 13.8409L2.20711 19.2071C1.81658 19.5976 1.18342 19.5976 0.792893 19.2071C0.402369 18.8166 0.402369 18.1834 0.792893 17.7929L6.15912 12.4267C5.20834 11.1785 4.64286 9.61894 4.64286 7.92857ZM12.0714 2.5C9.07331 2.5 6.64286 4.93045 6.64286 7.92857C6.64286 9.42791 7.24938 10.7837 8.23285 11.7672C9.21632 12.7506 10.5721 13.3571 12.0714 13.3571C15.0695 13.3571 17.5 10.9267 17.5 7.92857C17.5 4.93045 15.0695 2.5 12.0714 2.5Z" fill="black"/>
</svg>
